<svg width="352" height="256" viewBox="0 0 352 256" fill="none" xmlns="http://www.w3.org/2000/svg">
<g clip-path="url(#clip0_122_1222)">
<path d="M205.039 45.1298C211.637 45.1298 216.985 39.782 216.985 33.1852C216.985 26.5884 211.637 21.2406 205.039 21.2406C198.442 21.2406 193.094 26.5884 193.094 33.1852C193.094 39.782 198.442 45.1298 205.039 45.1298Z" fill="#121212"/>
<path d="M297.702 222.401C315.457 208.878 323.937 186.155 318.628 164.477C318.496 163.939 318.357 163.401 318.21 162.865C314.691 149.998 305.983 137.768 293.292 133.657C282.635 130.205 271.004 132.86 259.887 131.487C238.064 128.792 221.144 111.135 209.24 92.648C197.335 74.161 188.185 53.4675 172.367 38.1946C146.292 13.0198 103.757 7.59961 71.4279 23.9865C39.0988 40.3735 18.5055 76.7294 19.3837 112.963C20.262 149.196 41.773 183.837 73.0122 202.217C84.4883 208.968 97.7614 213.752 110.971 212.078C122.432 210.626 132.847 204.467 144.255 202.639C162.19 199.764 180.011 207.873 195.524 217.323C211.037 226.772 226.022 237.972 243.65 242.353C260.767 246.607 281.973 234.38 297.702 222.401Z" fill="#121212"/>
<path d="M272.192 24.7475C271.803 24.488 271.409 24.2419 271.02 23.9914C259.769 16.7961 247.71 10.9508 235.091 6.57606L232.166 46.9361H213.618V0.684446C212.45 0.442877 211.273 0.214728 210.097 0V46.9361H188.055C175.92 46.9361 164.283 42.1159 155.703 33.536C147.123 24.9562 142.302 13.3193 142.302 1.18553C141.121 1.44052 139.949 1.71337 138.777 2.00414V46.9361H120.824L118.037 8.45046C105.07 13.4233 92.7592 19.9629 81.3793 27.9237C81.1825 28.0579 80.9856 28.1965 80.7933 28.3307C79.8046 29.0241 78.8293 29.731 77.8585 30.4467V184.42H130.769L129.834 171.47L124.689 100.363H228.296L223.151 171.47L222.216 184.42H274.54V26.3042C273.762 25.7764 272.979 25.2575 272.192 24.7475ZM138.777 88.6202H123.839L121.079 50.4612H138.777V88.6202ZM210.097 88.6202H185.008V87.8642C185.008 87.5007 184.937 87.1409 184.797 86.8052C184.658 86.4694 184.454 86.1645 184.197 85.9077C183.94 85.6509 183.634 85.4473 183.298 85.3087C182.962 85.17 182.602 85.0989 182.239 85.0995H171.332C170.969 85.0994 170.609 85.1708 170.274 85.3097C169.938 85.4486 169.634 85.6522 169.377 85.909C169.12 86.1657 168.916 86.4705 168.778 86.806C168.639 87.1415 168.567 87.5011 168.567 87.8642V88.6202H142.302V50.4612H210.097V88.6202ZM213.618 88.6202V50.4612H231.911L229.15 88.6202H213.618Z" fill="#4B4B4B"/>
<path d="M0 194.28C3.88642 198.885 8.09002 203.213 12.5801 207.231L339.42 207.679C343.91 203.66 348.114 199.333 352 194.728L0 194.28Z" fill="#4B4B4B"/>
<path d="M221.641 152.811V191.151C221.641 191.639 221.835 192.108 222.181 192.453C222.526 192.799 222.995 192.993 223.483 192.994H280.302C280.79 192.993 281.259 192.799 281.604 192.453C281.95 192.108 282.144 191.639 282.144 191.151V152.811C282.143 152.323 281.949 151.855 281.603 151.51C281.258 151.165 280.79 150.971 280.302 150.971H223.483C222.995 150.971 222.527 151.165 222.182 151.51C221.836 151.855 221.642 152.323 221.641 152.811Z" fill="#4B4B4B"/>
<path d="M222.974 153.288V190.678C222.974 190.939 223.078 191.189 223.263 191.374C223.447 191.558 223.697 191.662 223.958 191.663H279.829C280.09 191.662 280.34 191.558 280.524 191.374C280.709 191.189 280.813 190.939 280.813 190.678V153.288C280.813 153.027 280.71 152.776 280.525 152.591C280.34 152.406 280.09 152.302 279.829 152.301H223.958C223.697 152.302 223.447 152.406 223.262 152.591C223.077 152.776 222.974 153.027 222.974 153.288Z" fill="#71FF49"/>
<path d="M220.452 198.628C220.556 198.759 220.689 198.864 220.839 198.936C220.99 199.008 221.155 199.045 221.322 199.044H282.161C282.327 199.044 282.491 199.007 282.641 198.935C282.792 198.863 282.924 198.759 283.029 198.63C283.133 198.501 283.208 198.35 283.247 198.188C283.286 198.026 283.289 197.858 283.255 197.695L282.311 193.209C282.271 193.027 282.187 192.856 282.065 192.714C281.944 192.572 281.788 192.463 281.613 192.396C281.487 192.347 281.352 192.321 281.216 192.321H222.263C222.127 192.321 221.992 192.347 221.865 192.396C221.69 192.463 221.535 192.572 221.413 192.714C221.292 192.856 221.207 193.027 221.168 193.209L220.224 197.695C220.19 197.858 220.193 198.026 220.233 198.187C220.272 198.349 220.347 198.499 220.452 198.628Z" fill="#3B3B3B"/>
<path d="M279.129 194.253H280.566C280.686 194.253 280.784 194.156 280.784 194.035V193.348C280.784 193.227 280.686 193.129 280.566 193.129H279.129C279.008 193.129 278.91 193.227 278.91 193.348V194.035C278.91 194.156 279.008 194.253 279.129 194.253Z" fill="#4B4B4B"/>
<path d="M275.381 194.253H276.818C276.939 194.253 277.036 194.156 277.036 194.035V193.348C277.036 193.227 276.939 193.129 276.818 193.129H275.381C275.26 193.129 275.163 193.227 275.163 193.348V194.035C275.163 194.156 275.26 194.253 275.381 194.253Z" fill="#4B4B4B"/>
<path d="M271.633 194.253H273.07C273.191 194.253 273.289 194.156 273.289 194.035V193.348C273.289 193.227 273.191 193.129 273.07 193.129H271.633C271.513 193.129 271.415 193.227 271.415 193.348V194.035C271.415 194.156 271.513 194.253 271.633 194.253Z" fill="#4B4B4B"/>
<path d="M267.886 194.253H269.323C269.443 194.253 269.541 194.156 269.541 194.035V193.348C269.541 193.227 269.443 193.129 269.323 193.129H267.886C267.765 193.129 267.667 193.227 267.667 193.348V194.035C267.667 194.156 267.765 194.253 267.886 194.253Z" fill="#4B4B4B"/>
<path d="M264.138 194.253H265.575C265.696 194.253 265.794 194.156 265.794 194.035V193.348C265.794 193.227 265.696 193.129 265.575 193.129H264.138C264.018 193.129 263.92 193.227 263.92 193.348V194.035C263.92 194.156 264.018 194.253 264.138 194.253Z" fill="#4B4B4B"/>
<path d="M260.391 194.253H261.828C261.948 194.253 262.046 194.156 262.046 194.035V193.348C262.046 193.227 261.948 193.129 261.828 193.129H260.391C260.27 193.129 260.172 193.227 260.172 193.348V194.035C260.172 194.156 260.27 194.253 260.391 194.253Z" fill="#4B4B4B"/>
<path d="M256.643 194.253H258.08C258.201 194.253 258.298 194.156 258.298 194.035V193.348C258.298 193.227 258.201 193.129 258.08 193.129H256.643C256.522 193.129 256.425 193.227 256.425 193.348V194.035C256.425 194.156 256.522 194.253 256.643 194.253Z" fill="#4B4B4B"/>
<path d="M252.895 194.253H254.332C254.453 194.253 254.551 194.156 254.551 194.035V193.348C254.551 193.227 254.453 193.129 254.332 193.129H252.895C252.775 193.129 252.677 193.227 252.677 193.348V194.035C252.677 194.156 252.775 194.253 252.895 194.253Z" fill="#4B4B4B"/>
<path d="M249.148 194.253H250.585C250.705 194.253 250.803 194.156 250.803 194.035V193.348C250.803 193.227 250.705 193.129 250.585 193.129H249.148C249.027 193.129 248.929 193.227 248.929 193.348V194.035C248.929 194.156 249.027 194.253 249.148 194.253Z" fill="#4B4B4B"/>
<path d="M245.4 194.253H246.837C246.958 194.253 247.056 194.156 247.056 194.035V193.348C247.056 193.227 246.958 193.129 246.837 193.129H245.4C245.28 193.129 245.182 193.227 245.182 193.348V194.035C245.182 194.156 245.28 194.253 245.4 194.253Z" fill="#4B4B4B"/>
<path d="M241.653 194.253H243.09C243.21 194.253 243.308 194.156 243.308 194.035V193.348C243.308 193.227 243.21 193.129 243.09 193.129H241.653C241.532 193.129 241.434 193.227 241.434 193.348V194.035C241.434 194.156 241.532 194.253 241.653 194.253Z" fill="#4B4B4B"/>
<path d="M237.905 194.253H239.342C239.463 194.253 239.56 194.156 239.56 194.035V193.348C239.56 193.227 239.463 193.129 239.342 193.129H237.905C237.784 193.129 237.687 193.227 237.687 193.348V194.035C237.687 194.156 237.784 194.253 237.905 194.253Z" fill="#4B4B4B"/>
<path d="M234.157 194.253H235.594C235.715 194.253 235.813 194.156 235.813 194.035V193.348C235.813 193.227 235.715 193.129 235.594 193.129H234.157C234.037 193.129 233.939 193.227 233.939 193.348V194.035C233.939 194.156 234.037 194.253 234.157 194.253Z" fill="#4B4B4B"/>
<path d="M230.41 194.253H231.847C231.967 194.253 232.065 194.156 232.065 194.035V193.348C232.065 193.227 231.967 193.129 231.847 193.129H230.41C230.289 193.129 230.191 193.227 230.191 193.348V194.035C230.191 194.156 230.289 194.253 230.41 194.253Z" fill="#4B4B4B"/>
<path d="M226.662 194.253H228.099C228.22 194.253 228.318 194.156 228.318 194.035V193.348C228.318 193.227 228.22 193.129 228.099 193.129H226.662C226.541 193.129 226.444 193.227 226.444 193.348V194.035C226.444 194.156 226.541 194.253 226.662 194.253Z" fill="#4B4B4B"/>
<path d="M222.915 194.253H224.352C224.472 194.253 224.57 194.156 224.57 194.035V193.348C224.57 193.227 224.472 193.129 224.352 193.129H222.915C222.794 193.129 222.696 193.227 222.696 193.348V194.035C222.696 194.156 222.794 194.253 222.915 194.253Z" fill="#4B4B4B"/>
<path d="M279.173 196.127H280.61C280.731 196.127 280.828 196.029 280.828 195.909V195.221C280.828 195.101 280.731 195.003 280.61 195.003H279.173C279.052 195.003 278.955 195.101 278.955 195.221V195.909C278.955 196.029 279.052 196.127 279.173 196.127Z" fill="#4B4B4B"/>
<path d="M275.425 196.127H276.862C276.983 196.127 277.081 196.029 277.081 195.909V195.221C277.081 195.101 276.983 195.003 276.862 195.003H275.425C275.305 195.003 275.207 195.101 275.207 195.221V195.909C275.207 196.029 275.305 196.127 275.425 196.127Z" fill="#4B4B4B"/>
<path d="M271.678 196.127H273.115C273.235 196.127 273.333 196.029 273.333 195.909V195.221C273.333 195.101 273.235 195.003 273.115 195.003H271.678C271.557 195.003 271.459 195.101 271.459 195.221V195.909C271.459 196.029 271.557 196.127 271.678 196.127Z" fill="#4B4B4B"/>
<path d="M267.93 196.127H269.367C269.488 196.127 269.586 196.029 269.586 195.909V195.221C269.586 195.101 269.488 195.003 269.367 195.003H267.93C267.81 195.003 267.712 195.101 267.712 195.221V195.909C267.712 196.029 267.81 196.127 267.93 196.127Z" fill="#4B4B4B"/>
<path d="M264.183 196.127H265.62C265.74 196.127 265.838 196.029 265.838 195.909V195.221C265.838 195.101 265.74 195.003 265.62 195.003H264.183C264.062 195.003 263.964 195.101 263.964 195.221V195.909C263.964 196.029 264.062 196.127 264.183 196.127Z" fill="#4B4B4B"/>
<path d="M260.435 196.127H261.872C261.993 196.127 262.09 196.029 262.09 195.909V195.221C262.09 195.101 261.993 195.003 261.872 195.003H260.435C260.314 195.003 260.217 195.101 260.217 195.221V195.909C260.217 196.029 260.314 196.127 260.435 196.127Z" fill="#4B4B4B"/>
<path d="M256.687 196.127H258.124C258.245 196.127 258.343 196.029 258.343 195.909V195.221C258.343 195.101 258.245 195.003 258.124 195.003H256.687C256.567 195.003 256.469 195.101 256.469 195.221V195.909C256.469 196.029 256.567 196.127 256.687 196.127Z" fill="#4B4B4B"/>
<path d="M252.94 196.127H254.377C254.497 196.127 254.595 196.029 254.595 195.909V195.221C254.595 195.101 254.497 195.003 254.377 195.003H252.94C252.819 195.003 252.721 195.101 252.721 195.221V195.909C252.721 196.029 252.819 196.127 252.94 196.127Z" fill="#4B4B4B"/>
<path d="M249.192 196.127H250.629C250.75 196.127 250.847 196.029 250.847 195.909V195.221C250.847 195.101 250.75 195.003 250.629 195.003H249.192C249.071 195.003 248.974 195.101 248.974 195.221V195.909C248.974 196.029 249.071 196.127 249.192 196.127Z" fill="#4B4B4B"/>
<path d="M245.444 196.127H246.881C247.002 196.127 247.1 196.029 247.1 195.909V195.221C247.1 195.101 247.002 195.003 246.881 195.003H245.444C245.324 195.003 245.226 195.101 245.226 195.221V195.909C245.226 196.029 245.324 196.127 245.444 196.127Z" fill="#4B4B4B"/>
<path d="M241.697 196.127H243.134C243.255 196.127 243.352 196.029 243.352 195.909V195.221C243.352 195.101 243.255 195.003 243.134 195.003H241.697C241.576 195.003 241.478 195.101 241.478 195.221V195.909C241.478 196.029 241.576 196.127 241.697 196.127Z" fill="#4B4B4B"/>
<path d="M237.949 196.127H239.386C239.507 196.127 239.605 196.029 239.605 195.909V195.221C239.605 195.101 239.507 195.003 239.386 195.003H237.949C237.829 195.003 237.731 195.101 237.731 195.221V195.909C237.731 196.029 237.829 196.127 237.949 196.127Z" fill="#4B4B4B"/>
<path d="M234.202 196.127H235.639C235.759 196.127 235.857 196.029 235.857 195.909V195.221C235.857 195.101 235.759 195.003 235.639 195.003H234.202C234.081 195.003 233.983 195.101 233.983 195.221V195.909C233.983 196.029 234.081 196.127 234.202 196.127Z" fill="#4B4B4B"/>
<path d="M230.454 196.127H231.891C232.012 196.127 232.109 196.029 232.109 195.909V195.221C232.109 195.101 232.012 195.003 231.891 195.003H230.454C230.333 195.003 230.236 195.101 230.236 195.221V195.909C230.236 196.029 230.333 196.127 230.454 196.127Z" fill="#4B4B4B"/>
<path d="M226.706 196.127H228.143C228.264 196.127 228.362 196.029 228.362 195.909V195.221C228.362 195.101 228.264 195.003 228.143 195.003H226.706C226.586 195.003 226.488 195.101 226.488 195.221V195.909C226.488 196.029 226.586 196.127 226.706 196.127Z" fill="#4B4B4B"/>
<path d="M222.959 196.127H224.396C224.516 196.127 224.614 196.029 224.614 195.909V195.221C224.614 195.101 224.516 195.003 224.396 195.003H222.959C222.838 195.003 222.74 195.101 222.74 195.221V195.909C222.74 196.029 222.838 196.127 222.959 196.127Z" fill="#4B4B4B"/>
<path d="M248.068 198.376H262.621C262.742 198.376 262.84 198.278 262.84 198.157V197.47C262.84 197.349 262.742 197.251 262.621 197.251H248.068C247.947 197.251 247.849 197.349 247.849 197.47V198.157C247.849 198.278 247.947 198.376 248.068 198.376Z" fill="#4B4B4B"/>
<path d="M232.649 160.481H231.376C230.991 160.481 230.678 160.794 230.678 161.18C230.678 161.565 230.991 161.878 231.376 161.878H232.649C233.034 161.878 233.347 161.565 233.347 161.18C233.347 160.794 233.034 160.481 232.649 160.481Z" fill="#121212"/>
<path d="M247.198 160.481H245.926C245.541 160.481 245.228 160.794 245.228 161.18C245.228 161.565 245.541 161.878 245.926 161.878H247.198C247.584 161.878 247.897 161.565 247.897 161.18C247.897 160.794 247.584 160.481 247.198 160.481Z" fill="#121212"/>
<path d="M251.321 160.481H250.049C249.663 160.481 249.35 160.794 249.35 161.18C249.35 161.565 249.663 161.878 250.049 161.878H251.321C251.707 161.878 252.019 161.565 252.019 161.18C252.019 160.794 251.707 160.481 251.321 160.481Z" fill="#121212"/>
<path d="M243.241 160.365H235.334C234.948 160.365 234.636 160.678 234.636 161.063C234.636 161.449 234.948 161.762 235.334 161.762H243.241C243.627 161.762 243.939 161.449 243.939 161.063C243.939 160.678 243.627 160.365 243.241 160.365Z" fill="#121212"/>
<path d="M262.641 160.365H254.734C254.348 160.365 254.036 160.678 254.036 161.063C254.036 161.449 254.348 161.762 254.734 161.762H262.641C263.026 161.762 263.339 161.449 263.339 161.063C263.339 160.678 263.026 160.365 262.641 160.365Z" fill="#121212"/>
<path d="M236.529 163.634H235.256C234.871 163.634 234.558 163.946 234.558 164.332C234.558 164.718 234.871 165.03 235.256 165.03H236.529C236.914 165.03 237.227 164.718 237.227 164.332C237.227 163.946 236.914 163.634 236.529 163.634Z" fill="#121212"/>
<path d="M251.078 163.634H249.806C249.421 163.634 249.108 163.946 249.108 164.332C249.108 164.718 249.421 165.03 249.806 165.03H251.078C251.464 165.03 251.777 164.718 251.777 164.332C251.777 163.946 251.464 163.634 251.078 163.634Z" fill="#121212"/>
<path d="M255.201 163.634H253.929C253.543 163.634 253.23 163.946 253.23 164.332C253.23 164.718 253.543 165.03 253.929 165.03H255.201C255.587 165.03 255.899 164.718 255.899 164.332C255.899 163.946 255.587 163.634 255.201 163.634Z" fill="#121212"/>
<path d="M247.121 163.517H239.214C238.828 163.517 238.516 163.83 238.516 164.216C238.516 164.601 238.828 164.914 239.214 164.914H247.121C247.507 164.914 247.819 164.601 247.819 164.216C247.819 163.83 247.507 163.517 247.121 163.517Z" fill="#121212"/>
<path d="M266.521 163.517H258.614C258.228 163.517 257.915 163.83 257.915 164.216C257.915 164.601 258.228 164.914 258.614 164.914H266.521C266.906 164.914 267.219 164.601 267.219 164.216C267.219 163.83 266.906 163.517 266.521 163.517Z" fill="#121212"/>
<path d="M240.409 166.786H239.136C238.751 166.786 238.438 167.099 238.438 167.484C238.438 167.87 238.751 168.183 239.136 168.183H240.409C240.794 168.183 241.107 167.87 241.107 167.484C241.107 167.099 240.794 166.786 240.409 166.786Z" fill="#121212"/>
<path d="M254.958 166.786H253.686C253.3 166.786 252.988 167.099 252.988 167.484C252.988 167.87 253.3 168.183 253.686 168.183H254.958C255.344 168.183 255.657 167.87 255.657 167.484C255.657 167.099 255.344 166.786 254.958 166.786Z" fill="#121212"/>
<path d="M259.081 166.786H257.809C257.423 166.786 257.11 167.099 257.11 167.484C257.11 167.87 257.423 168.183 257.809 168.183H259.081C259.467 168.183 259.779 167.87 259.779 167.484C259.779 167.099 259.467 166.786 259.081 166.786Z" fill="#121212"/>
<path d="M251.001 166.67H243.094C242.708 166.67 242.396 166.982 242.396 167.368C242.396 167.754 242.708 168.066 243.094 168.066H251.001C251.387 168.066 251.699 167.754 251.699 167.368C251.699 166.982 251.387 166.67 251.001 166.67Z" fill="#121212"/>
<path d="M270.401 166.67H262.494C262.108 166.67 261.795 166.982 261.795 167.368C261.795 167.754 262.108 168.066 262.494 168.066H270.401C270.786 168.066 271.099 167.754 271.099 167.368C271.099 166.982 270.786 166.67 270.401 166.67Z" fill="#121212"/>
<path d="M244.289 169.938H243.016C242.631 169.938 242.318 170.251 242.318 170.637C242.318 171.022 242.631 171.335 243.016 171.335H244.289C244.674 171.335 244.987 171.022 244.987 170.637C244.987 170.251 244.674 169.938 244.289 169.938Z" fill="#121212"/>
<path d="M258.838 169.938H257.566C257.18 169.938 256.868 170.251 256.868 170.637C256.868 171.022 257.18 171.335 257.566 171.335H258.838C259.224 171.335 259.537 171.022 259.537 170.637C259.537 170.251 259.224 169.938 258.838 169.938Z" fill="#121212"/>
<path d="M262.961 169.938H261.689C261.303 169.938 260.99 170.251 260.99 170.637C260.99 171.022 261.303 171.335 261.689 171.335H262.961C263.347 171.335 263.659 171.022 263.659 170.637C263.659 170.251 263.347 169.938 262.961 169.938Z" fill="#121212"/>
<path d="M254.881 169.822H246.974C246.588 169.822 246.276 170.135 246.276 170.52C246.276 170.906 246.588 171.219 246.974 171.219H254.881C255.267 171.219 255.579 170.906 255.579 170.52C255.579 170.135 255.267 169.822 254.881 169.822Z" fill="#121212"/>
<path d="M247.198 182.473H245.926C245.541 182.473 245.228 182.786 245.228 183.172C245.228 183.557 245.541 183.87 245.926 183.87H247.198C247.584 183.87 247.897 183.557 247.897 183.172C247.897 182.786 247.584 182.473 247.198 182.473Z" fill="#121212"/>
<path d="M251.321 182.473H250.049C249.663 182.473 249.35 182.786 249.35 183.172C249.35 183.557 249.663 183.87 250.049 183.87H251.321C251.707 183.87 252.019 183.557 252.019 183.172C252.019 182.786 251.707 182.473 251.321 182.473Z" fill="#121212"/>
<path d="M262.641 182.59H254.734C254.348 182.59 254.036 182.902 254.036 183.288C254.036 183.674 254.348 183.986 254.734 183.986H262.641C263.026 183.986 263.339 183.674 263.339 183.288C263.339 182.902 263.026 182.59 262.641 182.59Z" fill="#121212"/>
<path d="M232.649 182.473H231.376C230.991 182.473 230.678 182.786 230.678 183.172C230.678 183.557 230.991 183.87 231.376 183.87H232.649C233.034 183.87 233.347 183.557 233.347 183.172C233.347 182.786 233.034 182.473 232.649 182.473Z" fill="#121212"/>
<path d="M243.241 182.59H235.334C234.948 182.59 234.636 182.902 234.636 183.288C234.636 183.674 234.948 183.986 235.334 183.986H243.241C243.627 183.986 243.939 183.674 243.939 183.288C243.939 182.902 243.627 182.59 243.241 182.59Z" fill="#121212"/>
<path d="M236.529 179.321H235.256C234.871 179.321 234.558 179.634 234.558 180.019C234.558 180.405 234.871 180.718 235.256 180.718H236.529C236.914 180.718 237.227 180.405 237.227 180.019C237.227 179.634 236.914 179.321 236.529 179.321Z" fill="#121212"/>
<path d="M251.078 179.321H249.806C249.421 179.321 249.108 179.634 249.108 180.019C249.108 180.405 249.421 180.718 249.806 180.718H251.078C251.464 180.718 251.777 180.405 251.777 180.019C251.777 179.634 251.464 179.321 251.078 179.321Z" fill="#121212"/>
<path d="M255.201 179.321H253.929C253.543 179.321 253.23 179.634 253.23 180.019C253.23 180.405 253.543 180.718 253.929 180.718H255.201C255.587 180.718 255.899 180.405 255.899 180.019C255.899 179.634 255.587 179.321 255.201 179.321Z" fill="#121212"/>
<path d="M247.121 179.437H239.214C238.828 179.437 238.516 179.75 238.516 180.136C238.516 180.521 238.828 180.834 239.214 180.834H247.121C247.507 180.834 247.819 180.521 247.819 180.136C247.819 179.75 247.507 179.437 247.121 179.437Z" fill="#121212"/>
<path d="M240.409 176.169H239.136C238.751 176.169 238.438 176.481 238.438 176.867C238.438 177.253 238.751 177.565 239.136 177.565H240.409C240.794 177.565 241.107 177.253 241.107 176.867C241.107 176.481 240.794 176.169 240.409 176.169Z" fill="#121212"/>
<path d="M254.958 176.169H253.686C253.3 176.169 252.988 176.481 252.988 176.867C252.988 177.253 253.3 177.565 253.686 177.565H254.958C255.344 177.565 255.657 177.253 255.657 176.867C255.657 176.481 255.344 176.169 254.958 176.169Z" fill="#121212"/>
<path d="M259.081 176.169H257.809C257.423 176.169 257.11 176.481 257.11 176.867C257.11 177.253 257.423 177.565 257.809 177.565H259.081C259.467 177.565 259.779 177.253 259.779 176.867C259.779 176.481 259.467 176.169 259.081 176.169Z" fill="#121212"/>
<path d="M251.001 176.285H243.094C242.708 176.285 242.396 176.598 242.396 176.983C242.396 177.369 242.708 177.682 243.094 177.682H251.001C251.387 177.682 251.699 177.369 251.699 176.983C251.699 176.598 251.387 176.285 251.001 176.285Z" fill="#121212"/>
<path d="M244.289 173.016H243.016C242.631 173.016 242.318 173.329 242.318 173.715C242.318 174.1 242.631 174.413 243.016 174.413H244.289C244.674 174.413 244.987 174.1 244.987 173.715C244.987 173.329 244.674 173.016 244.289 173.016Z" fill="#121212"/>
<path d="M258.838 173.016H257.566C257.18 173.016 256.868 173.329 256.868 173.715C256.868 174.1 257.18 174.413 257.566 174.413H258.838C259.224 174.413 259.537 174.1 259.537 173.715C259.537 173.329 259.224 173.016 258.838 173.016Z" fill="#121212"/>
<path d="M262.961 173.016H261.689C261.303 173.016 260.99 173.329 260.99 173.715C260.99 174.1 261.303 174.413 261.689 174.413H262.961C263.347 174.413 263.659 174.1 263.659 173.715C263.659 173.329 263.347 173.016 262.961 173.016Z" fill="#121212"/>
<path d="M254.881 173.133H246.974C246.588 173.133 246.276 173.445 246.276 173.831C246.276 174.217 246.588 174.529 246.974 174.529H254.881C255.267 174.529 255.579 174.217 255.579 173.831C255.579 173.445 255.267 173.133 254.881 173.133Z" fill="#121212"/>
<path d="M225.885 219.417L219.913 209.978L238.659 195.035L246.396 186.463C247.401 185.349 248.681 184.519 250.108 184.055C251.535 183.591 253.058 183.51 254.526 183.819C255.994 184.128 257.355 184.817 258.474 185.817C259.592 186.817 260.428 188.093 260.899 189.518C261.596 191.628 261.446 193.928 260.481 195.93C259.515 197.932 257.809 199.481 255.723 200.25L243.488 204.757L225.885 219.417Z" fill="#FFB6B6"/>
<path d="M85.7565 150.972V196.853H117.9V150.972C117.901 150.642 117.795 150.321 117.6 150.055C117.404 149.789 117.128 149.594 116.813 149.496C116.664 149.447 116.509 149.423 116.352 149.425H87.3088C87.1053 149.424 86.9036 149.464 86.7153 149.541C86.5271 149.619 86.356 149.733 86.2119 149.877C86.0677 150.02 85.9532 150.191 85.8751 150.379C85.797 150.567 85.7567 150.769 85.7565 150.972ZM98.3007 166.737C98.3091 165.832 98.6743 164.968 99.3169 164.331C99.9595 163.695 100.827 163.337 101.732 163.337C102.637 163.337 103.505 163.695 104.147 164.331C104.79 164.968 105.155 165.832 105.163 166.737V172.06C105.159 172.967 104.795 173.836 104.152 174.475C103.509 175.115 102.639 175.474 101.732 175.474C100.825 175.474 99.9549 175.115 99.3119 174.475C98.6689 173.836 98.3054 172.967 98.3007 172.06V166.737Z" fill="#3B3B3B"/>
<path d="M85.6581 195.385V199.81C85.6588 200.039 85.7499 200.258 85.9115 200.421C86.0731 200.583 86.2923 200.676 86.5215 200.678H117.135C117.364 200.676 117.584 200.584 117.746 200.422C117.908 200.259 117.999 200.039 117.998 199.81V195.385H85.6581Z" fill="#4B4B4B"/>
<path d="M35.1902 81.8477V165.619C35.191 166.686 35.6155 167.71 36.3704 168.465C37.1253 169.219 38.1489 169.644 39.2165 169.645H163.362C164.429 169.644 165.453 169.219 166.208 168.465C166.963 167.71 167.387 166.686 167.388 165.619V81.8477C167.386 80.7811 166.96 79.759 166.206 79.0052C165.451 78.2514 164.428 77.8274 163.362 77.826H39.2165C38.1499 77.8274 37.1272 78.2514 36.3725 79.0052C35.6179 79.759 35.1927 80.7811 35.1902 81.8477Z" fill="#4B4B4B"/>
<path d="M38.1025 82.89V164.585C38.1035 165.156 38.3305 165.702 38.7339 166.106C39.1372 166.509 39.684 166.736 40.2544 166.737H162.328C162.899 166.736 163.446 166.509 163.849 166.106C164.252 165.702 164.479 165.156 164.48 164.585V82.89C164.48 82.3189 164.254 81.7712 163.85 81.367C163.447 80.9627 162.899 80.735 162.328 80.7338H40.2544C39.6833 80.735 39.136 80.9627 38.7326 81.367C38.3292 81.7712 38.1026 82.3189 38.1025 82.89Z" fill="#121212"/>
<path d="M60.7574 200.378C60.8816 200.534 61.0396 200.659 61.2193 200.745C61.3991 200.831 61.596 200.875 61.7953 200.874H134.421C134.62 200.874 134.816 200.83 134.995 200.744C135.175 200.658 135.333 200.534 135.458 200.38C135.583 200.226 135.672 200.045 135.719 199.852C135.765 199.659 135.768 199.458 135.728 199.264L134.6 193.909C134.554 193.691 134.453 193.488 134.308 193.318C134.162 193.148 133.977 193.018 133.768 192.938C133.617 192.879 133.456 192.849 133.294 192.849H62.9182C62.7559 192.849 62.595 192.879 62.444 192.938C62.2353 193.018 62.0499 193.148 61.9045 193.318C61.7592 193.487 61.6586 193.691 61.6119 193.909L60.4845 199.264C60.4444 199.458 60.4481 199.659 60.4953 199.852C60.5425 200.044 60.632 200.224 60.7574 200.378Z" fill="#3B3B3B"/>
<path d="M158.367 91.9877H44.1425C44.0238 91.985 43.9108 91.936 43.8278 91.8511C43.7447 91.7662 43.6982 91.6522 43.6982 91.5334C43.6982 91.4147 43.7447 91.3007 43.8278 91.2158C43.9108 91.1309 44.0238 91.0819 44.1425 91.0792H158.367C158.485 91.0819 158.598 91.1309 158.681 91.2158C158.764 91.3007 158.811 91.4147 158.811 91.5334C158.811 91.6522 158.764 91.7662 158.681 91.8511C158.598 91.936 158.485 91.985 158.367 91.9877Z" fill="#4B4B4B"/>
<path d="M51.9179 88.7601C53.3881 88.7601 54.58 87.5417 54.58 86.0388C54.58 84.5359 53.3881 83.3176 51.9179 83.3176C50.4477 83.3176 49.2559 84.5359 49.2559 86.0388C49.2559 87.5417 50.4477 88.7601 51.9179 88.7601Z" fill="#4B4B4B"/>
<path d="M61.1141 88.7601C62.5843 88.7601 63.7761 87.5417 63.7761 86.0388C63.7761 84.5359 62.5843 83.3176 61.1141 83.3176C59.6439 83.3176 58.452 84.5359 58.452 86.0388C58.452 87.5417 59.6439 88.7601 61.1141 88.7601Z" fill="#4B4B4B"/>
<path d="M70.3102 88.7601C71.7804 88.7601 72.9723 87.5417 72.9723 86.0388C72.9723 84.5359 71.7804 83.3176 70.3102 83.3176C68.84 83.3176 67.6482 84.5359 67.6482 86.0388C67.6482 87.5417 68.84 88.7601 70.3102 88.7601Z" fill="#4B4B4B"/>
<path d="M152.829 83.9905H146.297C146.168 83.9935 146.045 84.0469 145.955 84.1393C145.865 84.2317 145.814 84.3557 145.814 84.4849C145.814 84.614 145.865 84.738 145.955 84.8304C146.045 84.9228 146.168 84.9762 146.297 84.9792H152.829C152.959 84.9773 153.083 84.9245 153.174 84.832C153.265 84.7395 153.316 84.6148 153.316 84.4849C153.316 84.3549 153.265 84.2303 153.174 84.1378C153.083 84.0453 152.959 83.9924 152.829 83.9905Z" fill="#4B4B4B"/>
<path d="M152.829 85.847H146.298C146.168 85.8499 146.045 85.9032 145.955 85.9956C145.865 86.088 145.814 86.2121 145.814 86.3414C145.814 86.4706 145.865 86.5947 145.955 86.6871C146.045 86.7795 146.168 86.8328 146.298 86.8357H152.829C152.959 86.8341 153.083 86.7814 153.175 86.6888C153.266 86.5963 153.318 86.4715 153.318 86.3414C153.318 86.2113 153.266 86.0864 153.175 85.9939C153.083 85.9014 152.959 85.8486 152.829 85.847Z" fill="#4B4B4B"/>
<path d="M152.829 87.7035H146.297C146.168 87.7065 146.045 87.7599 145.955 87.8523C145.865 87.9447 145.814 88.0687 145.814 88.1978C145.814 88.327 145.865 88.451 145.955 88.5434C146.045 88.6357 146.168 88.6891 146.297 88.6921H152.829C152.959 88.6903 153.083 88.6374 153.174 88.5449C153.265 88.4524 153.316 88.3277 153.316 88.1978C153.316 88.0679 153.265 87.9432 153.174 87.8507C153.083 87.7582 152.959 87.7053 152.829 87.7035Z" fill="#4B4B4B"/>
<path d="M310.294 197.327C310.491 197.901 310.865 198.398 311.362 198.746C311.859 199.094 312.454 199.275 313.06 199.265L324.912 198.96C325.523 198.948 326.114 198.738 326.596 198.363C327.079 197.987 327.426 197.466 327.588 196.876L329.265 178.943C329.86 179.213 330.508 179.346 331.161 179.333C331.728 179.318 332.287 179.193 332.806 178.962C333.325 178.732 333.793 178.402 334.184 177.991C334.575 177.579 334.882 177.095 335.086 176.565C335.29 176.036 335.387 175.471 335.373 174.904C335.359 174.336 335.233 173.777 335.003 173.258C334.772 172.74 334.442 172.271 334.031 171.88C333.62 171.489 333.135 171.183 332.606 170.979C332.076 170.775 331.511 170.677 330.944 170.691C330.683 170.691 330.422 170.718 330.167 170.772C329.89 170.472 329.552 170.233 329.177 170.071C328.801 169.909 328.396 169.827 327.987 169.831L309.756 170.302C309.605 170.308 309.454 170.326 309.306 170.358C308.907 170.433 308.527 170.592 308.194 170.825C307.861 171.059 307.582 171.361 307.375 171.711C307.169 172.061 307.04 172.452 306.997 172.856C306.954 173.26 306.998 173.669 307.126 174.055L310.294 197.327ZM329.609 177.726L330.802 173.452C330.938 172.958 330.941 172.438 330.811 171.943C330.869 171.942 330.92 171.915 330.978 171.915C331.797 171.898 332.588 172.206 333.179 172.772C333.771 173.338 334.114 174.115 334.133 174.933C334.152 175.751 333.846 176.544 333.282 177.137C332.717 177.73 331.941 178.074 331.123 178.096C330.594 178.112 330.07 177.984 329.609 177.726Z" fill="#3B3B3B"/>
<path d="M309.306 170.358C309.695 172.579 314.062 174.14 319.312 173.868C324.141 173.646 328.088 171.951 328.812 169.941C328.544 169.862 328.266 169.825 327.987 169.831L309.756 170.302C309.605 170.308 309.454 170.326 309.306 170.358Z" fill="#4B4B4B"/>
<path d="M320.274 187.473C320.298 187.467 320.321 187.457 320.342 187.443L322.916 185.758C322.947 185.738 322.972 185.71 322.99 185.678C323.008 185.645 323.017 185.609 323.017 185.571C323.017 185.534 323.008 185.498 322.99 185.465C322.973 185.432 322.947 185.405 322.916 185.384L320.241 183.632C320.216 183.616 320.189 183.605 320.16 183.599C320.131 183.594 320.101 183.594 320.072 183.6C320.043 183.606 320.016 183.617 319.992 183.634C319.967 183.65 319.947 183.671 319.93 183.696C319.914 183.721 319.903 183.748 319.898 183.777C319.892 183.806 319.893 183.836 319.899 183.865C319.905 183.893 319.916 183.921 319.933 183.945C319.95 183.969 319.971 183.99 319.996 184.006L322.385 185.571L320.097 187.069C320.053 187.098 320.02 187.141 320.005 187.192C319.99 187.243 319.993 187.297 320.015 187.346C320.036 187.394 320.074 187.434 320.121 187.457C320.169 187.48 320.223 187.486 320.274 187.473Z" fill="#71FF49"/>
<path d="M316.209 187.66C316.252 187.649 316.291 187.626 316.321 187.592C316.351 187.559 316.37 187.518 316.376 187.474C316.382 187.43 316.375 187.385 316.355 187.345C316.335 187.305 316.304 187.271 316.266 187.249L313.893 185.889L316.186 184.186C316.21 184.169 316.23 184.147 316.245 184.121C316.26 184.096 316.27 184.068 316.274 184.039C316.278 184.01 316.277 183.981 316.27 183.952C316.263 183.924 316.25 183.897 316.232 183.873C316.215 183.85 316.193 183.83 316.168 183.815C316.143 183.8 316.115 183.79 316.086 183.785C316.057 183.781 316.027 183.783 315.998 183.79C315.97 183.797 315.943 183.81 315.92 183.827L313.352 185.734C313.323 185.756 313.299 185.785 313.283 185.819C313.267 185.853 313.26 185.89 313.262 185.927C313.265 185.964 313.276 186 313.295 186.031C313.315 186.063 313.342 186.089 313.374 186.108L316.043 187.637C316.093 187.666 316.153 187.674 316.209 187.66Z" fill="#71FF49"/>
<path d="M320.018 188.949C320.04 188.943 320.061 188.935 320.08 188.923C320.105 188.908 320.127 188.888 320.144 188.864C320.161 188.84 320.174 188.813 320.181 188.785C320.188 188.756 320.189 188.727 320.185 188.698C320.18 188.669 320.17 188.641 320.155 188.616L316.506 182.617C316.475 182.567 316.425 182.531 316.368 182.517C316.31 182.503 316.249 182.512 316.199 182.543C316.148 182.574 316.112 182.624 316.098 182.681C316.084 182.739 316.093 182.8 316.124 182.85L319.772 188.848C319.797 188.889 319.835 188.921 319.879 188.939C319.923 188.957 319.972 188.961 320.018 188.949Z" fill="#71FF49"/>
<path d="M114.902 116.681H95.1328C94.3263 116.681 93.6725 117.335 93.6725 118.141V120.073C93.6725 120.879 94.3263 121.533 95.1328 121.533H114.902C115.709 121.533 116.363 120.879 116.363 120.073V118.141C116.363 117.335 115.709 116.681 114.902 116.681Z" fill="#71FF49"/>
<path d="M126.426 126.385H83.6091C82.8026 126.385 82.1488 127.039 82.1488 127.845V129.776C82.1488 130.583 82.8026 131.237 83.6091 131.237H126.426C127.232 131.237 127.886 130.583 127.886 129.776V127.845C127.886 127.039 127.232 126.385 126.426 126.385Z" fill="#121212"/>
<path d="M126.426 136.089H83.6091C82.8026 136.089 82.1488 136.742 82.1488 137.549V139.48C82.1488 140.287 82.8026 140.94 83.6091 140.94H126.426C127.232 140.94 127.886 140.287 127.886 139.48V137.549C127.886 136.742 127.232 136.089 126.426 136.089Z" fill="#121212"/>
<path d="M130.056 168.582L130.153 168.889L130.158 168.899L133.077 177.773L136.435 188L142.753 207.219L142.814 210.204V210.215L143.284 234.23L141.982 237.486L143.447 242.824C143.447 242.824 142.773 234.755 139.16 239.389C137.114 242.022 134.72 244.717 132.755 247.243C135.618 248.401 138.527 249.449 141.482 250.386C142.12 250.591 142.763 250.785 143.406 250.978C143.544 251.019 143.682 251.06 143.82 251.101C153.615 253.997 163.741 255.625 173.95 255.944C174.481 255.959 175.002 255.969 175.507 255.98C175.686 255.985 175.859 255.99 176.033 255.99C176.604 255.995 177.171 256 177.742 256C178.896 256 180.044 255.983 181.187 255.949C189.648 255.711 198.06 254.573 206.281 252.555C206.225 249.162 206.072 245.196 205.852 240.961C205.75 238.884 203.459 236.633 203.321 234.459C203.224 232.826 205.281 231.29 205.173 229.632C204.479 219.42 203.612 223.34 202.969 216.109C202.902 215.399 202.841 214.721 202.785 214.073C202.372 209.429 202.086 206.525 202.086 206.525L204.831 189.22L209.144 162.05L208.812 161.504L208.44 161.32L185.694 150.063L184.458 146.899C184.099 145.987 183.474 145.204 182.666 144.65C181.857 144.096 180.902 143.797 179.922 143.791L164.938 143.73C164.16 143.726 163.393 143.908 162.7 144.26C162.007 144.613 161.407 145.125 160.952 145.756L156.895 151.374L130.056 168.582Z" fill="#4B4B4B"/>
<path d="M146.208 202.942L142.814 210.204L140.497 215.165L136.511 236.032L134.516 238.15L132.806 230.652L114.913 234.625C114.326 231.364 114.755 234.735 114.393 231.158C114.495 231.056 114.602 230.954 114.709 230.852C114.995 230.587 115.235 230.336 115.23 230.097C115.026 217.757 115.638 196.757 120.752 184.035C121.553 181.958 122.609 179.988 123.896 178.171C123.998 178.033 124.095 177.896 124.192 177.758C126.55 174.456 128.04 171.205 130.153 168.894V168.889C130.166 168.878 130.178 168.866 130.188 168.853C130.196 168.849 130.203 168.844 130.209 168.837L144.723 161.142L145.346 178.636L145.79 191.21L146.208 202.942Z" fill="#4B4B4B"/>
<path d="M198.544 205.005L202.783 214.075L204.262 217.234L208.247 238.099L210.236 240.212L211.95 232.716L212.755 232.551L227.276 229.544L231.508 242.985C232.462 241.396 232.838 239.526 232.572 237.691C232.306 235.857 231.415 234.17 230.049 232.917C229.76 232.656 229.519 232.401 229.526 232.16C229.767 217.647 228.879 191.145 220.862 180.238C218.315 176.776 216.788 173.329 214.565 170.92C214.558 170.913 214.558 170.906 214.551 170.906L209.142 162.05L208.811 161.506L208.44 161.32L198.544 205.005Z" fill="#4B4B4B"/>
<path d="M172.862 139.466C183.872 139.466 192.796 130.541 192.796 119.532C192.796 108.524 183.872 99.5992 172.862 99.5992C161.853 99.5992 152.928 108.524 152.928 119.532C152.928 130.541 161.853 139.466 172.862 139.466Z" fill="#FFB6B6"/>
<path d="M199.806 105.609C199.651 105.444 199.465 105.312 199.258 105.22C199.051 105.129 198.828 105.08 198.602 105.077L198.902 104.245C199 103.983 199.026 103.699 198.978 103.424C198.931 103.148 198.811 102.89 198.63 102.676C198.45 102.462 198.216 102.3 197.953 102.206C197.689 102.112 197.405 102.09 197.13 102.142L196.039 102.352L196.142 101.623C196.181 101.352 196.149 101.074 196.049 100.819C195.949 100.563 195.784 100.338 195.57 100.166C195.357 99.9936 195.102 99.8797 194.831 99.8356C194.56 99.7915 194.283 99.8186 194.026 99.9143C193.792 100.006 193.54 100.045 193.289 100.027C193.038 100.009 192.795 99.9357 192.576 99.8115C192.357 99.691 192.166 99.5242 192.018 99.3225C191.869 99.1208 191.767 98.8892 191.717 98.6438L191.337 96.8097L191.297 96.7113C189.445 93.6246 185.883 91.3789 181.526 90.5557C177.647 89.8176 173.67 90.1934 169.836 90.5468C168.315 90.6899 166.597 90.851 165.166 91.7278C163.949 92.4793 162.92 93.9825 163.13 95.499C159.35 94.3403 155.297 96.6531 153.288 99.5699C150.908 103.041 150.519 107.39 150.456 110.789C150.286 118.833 151.946 125.413 155.377 130.352C155.628 130.71 155.69 131.457 156.187 131.708L156.084 131.542C156.639 131.819 157.203 132.267 156.992 132.745C156.388 134.123 160.401 137.17 163.229 138.176C168.387 140.015 175.245 139.858 180.068 139.196L180.238 138.055C181.978 137.818 183.204 137.367 183.548 136.66C184.157 136.141 184.676 135.676 185.127 135.246L185.132 135.242C185.141 135.233 185.159 135.219 185.168 135.21C187.346 133.121 187.852 131.931 188.08 130.119C188.299 128.343 187.91 126.541 187.512 124.917C195.896 126.214 184.21 115.988 192.021 114.01C192.111 113.983 192.202 113.96 192.294 113.943C192.522 113.89 192.751 113.836 192.97 113.773C194.026 113.486 195.038 113.054 195.976 112.489C198.159 111.161 198.88 109.398 200.007 107.412C200.17 107.129 200.238 106.802 200.202 106.478C200.165 106.153 200.027 105.849 199.806 105.609Z" fill="#3B3B3B"/>
<path d="M243.366 206.424C243.362 207.207 243.353 208.303 243.317 209.658C243.312 209.846 243.308 210.039 243.303 210.236C243.245 212.727 243.187 214.816 243.093 217.138C243.089 217.299 243.084 217.456 243.075 217.617C242.95 220.856 242.753 224.627 242.413 230.599C241.782 241.631 240.682 232.115 239.577 235.985C239.523 236.177 239.465 236.406 239.411 236.674C239.244 237.648 238.962 238.598 238.57 239.506C237.984 239.855 237.38 240.19 236.785 240.526C235.09 241.47 233.367 242.378 231.632 243.241C230.656 243.724 229.677 244.198 228.692 244.655C228.536 244.726 228.384 244.798 228.232 244.865C223.192 247.196 217.997 249.178 212.685 250.797C211.648 251.11 210.614 251.414 209.567 251.696C208.476 252 207.384 252.287 206.279 252.555C198.059 254.573 189.647 255.711 181.186 255.95C180.045 255.986 178.896 256 177.741 256C177.169 256 176.605 255.995 176.032 255.991C175.858 255.991 175.683 255.986 175.509 255.982C175.003 255.968 174.48 255.959 173.952 255.946C163.743 255.627 153.616 253.999 143.822 251.101L143.406 250.98C142.761 250.783 142.122 250.591 141.482 250.385C138.529 249.45 135.62 248.404 132.754 247.245C130.566 246.364 128.404 245.418 126.267 244.409C126.247 244.403 126.229 244.394 126.213 244.382C125.766 244.176 125.314 243.961 124.867 243.742C124.808 243.711 124.746 243.679 124.683 243.648C123.014 242.834 121.364 241.981 119.731 241.089C118.357 237.935 116.425 237.332 115.226 234.558C114.877 233.734 114.625 232.872 114.474 231.99C114.474 231.981 114.47 231.972 114.47 231.959C114.595 233.623 113.937 229.006 114.465 231.941C114.461 231.887 114.456 231.829 114.452 231.762C114.438 231.601 114.421 231.404 114.394 231.158C112.859 216.176 112.958 199.043 112.291 184.924C112.246 184.012 112.2 183.138 112.152 182.303C112.139 182.026 112.121 181.753 112.103 181.484C112.134 181.404 112.17 181.319 112.211 181.238C112.219 181.215 112.23 181.193 112.242 181.171C112.255 181.143 112.27 181.116 112.287 181.091C112.296 181.077 112.309 181.059 112.318 181.046C112.324 181.031 112.332 181.016 112.34 181.001C112.381 180.939 112.425 180.871 112.474 180.809C112.497 180.782 112.515 180.76 112.537 180.737C112.553 180.714 112.571 180.693 112.591 180.675C112.605 180.653 112.621 180.634 112.64 180.616C112.658 180.599 112.676 180.576 112.698 180.554C112.708 180.54 112.72 180.528 112.734 180.518C112.769 180.477 112.808 180.44 112.85 180.406C113.01 180.259 113.18 180.125 113.36 180.004C113.423 179.963 113.49 179.923 113.553 179.878C114.003 179.609 114.478 179.381 114.971 179.198C115.141 179.136 115.311 179.078 115.494 179.015C115.561 178.997 115.624 178.975 115.691 178.952C115.789 178.921 115.888 178.89 115.991 178.867C116.501 178.715 117.051 178.585 117.646 178.465C117.718 178.451 117.794 178.438 117.87 178.42C117.977 178.398 118.089 178.38 118.201 178.362C118.353 178.335 118.509 178.308 118.666 178.281C119.995 178.071 121.502 177.914 123.167 177.812C123.323 177.803 123.48 177.794 123.636 177.785C123.82 177.776 124.003 177.767 124.191 177.758C124.348 177.749 124.509 177.744 124.67 177.74C124.826 177.731 124.987 177.727 125.153 177.722C125.605 177.709 126.07 177.695 126.544 177.686C127.895 177.659 129.318 177.668 130.812 177.7C131.506 177.718 132.212 177.736 132.937 177.767C132.986 177.767 133.031 177.771 133.076 177.771C133.707 177.794 134.342 177.821 134.995 177.856C135.451 177.879 135.912 177.901 136.373 177.928C136.807 177.955 137.245 177.982 137.688 178.013C138.033 178.031 138.377 178.058 138.726 178.08C139.021 178.102 139.317 178.125 139.612 178.143L140.015 178.169C140.234 178.187 140.453 178.201 140.677 178.223C141.169 178.263 141.661 178.304 142.162 178.344C142.659 178.389 143.164 178.433 143.67 178.478C144.175 178.523 144.685 178.572 145.195 178.621C145.249 178.626 145.298 178.63 145.347 178.635C145.812 178.684 146.278 178.729 146.748 178.778C146.855 178.787 146.967 178.796 147.074 178.809C147.522 178.854 147.979 178.907 148.43 178.955C148.569 178.97 148.707 178.984 148.846 179C149.2 179.038 149.549 179.071 149.906 179.113C150.376 179.167 150.854 179.216 151.32 179.279C151.682 179.319 152.044 179.359 152.407 179.404C152.975 179.471 153.552 179.543 154.129 179.619C154.348 179.646 154.568 179.673 154.787 179.704C156.433 179.91 158.097 180.138 159.788 180.375C162.352 180.737 164.955 181.131 167.577 181.556C170.203 181.981 172.844 182.43 175.5 182.902C176.171 183.023 176.842 183.144 177.518 183.269C177.822 183.327 178.126 183.386 178.43 183.444C178.949 183.538 179.468 183.636 179.987 183.734C180.506 183.833 181.025 183.931 181.544 184.034C182.161 184.155 182.783 184.276 183.401 184.397C187.467 185.202 191.511 186.061 195.457 186.96C196.106 187.107 196.755 187.26 197.399 187.407C198.687 187.707 199.964 188.011 201.228 188.32C201.577 188.4 201.922 188.485 202.266 188.57C203.125 188.785 203.984 189 204.83 189.219L204.977 189.259C205.599 189.411 206.207 189.568 206.816 189.729C208.252 190.105 209.664 190.485 211.052 190.87C211.974 191.125 212.885 191.383 213.786 191.644C215.133 192.033 216.452 192.426 217.736 192.825C218.054 192.923 218.371 193.021 218.685 193.115C219.624 193.406 220.55 193.701 221.449 193.997C222.165 194.229 222.863 194.466 223.552 194.704C224.241 194.941 224.917 195.178 225.579 195.415C226.004 195.567 226.424 195.728 226.845 195.88C227.449 196.104 228.044 196.327 228.625 196.551C228.804 196.618 228.979 196.69 229.153 196.757C229.265 196.806 229.372 196.846 229.48 196.891C229.69 196.976 229.905 197.057 230.11 197.142C230.321 197.222 230.527 197.307 230.732 197.397C230.934 197.477 231.139 197.562 231.336 197.647C231.538 197.728 231.734 197.813 231.931 197.902C232.097 197.969 232.258 198.041 232.414 198.112C232.732 198.251 233.05 198.39 233.358 198.533C233.51 198.604 233.663 198.672 233.815 198.743L234.164 198.904C234.213 198.931 234.262 198.953 234.311 198.976C234.423 199.029 234.539 199.088 234.651 199.141C234.911 199.262 235.166 199.392 235.416 199.513C235.752 199.683 236.078 199.853 236.392 200.018C236.709 200.188 237.018 200.358 237.313 200.524C237.362 200.55 237.407 200.577 237.456 200.604C237.523 200.64 237.591 200.68 237.658 200.716C237.886 200.846 238.105 200.98 238.324 201.11C238.754 201.373 239.161 201.633 239.541 201.892C239.626 201.951 239.707 202.009 239.792 202.062C240.073 202.264 240.342 202.461 240.592 202.662C240.592 202.666 240.592 202.666 240.597 202.666C240.682 202.729 240.762 202.796 240.843 202.859C240.91 202.921 240.982 202.975 241.049 203.038C241.281 203.239 241.496 203.431 241.693 203.628C241.759 203.689 241.822 203.753 241.881 203.82C241.907 203.842 241.931 203.866 241.952 203.892C242.042 203.982 242.122 204.071 242.198 204.16C242.21 204.173 242.221 204.186 242.23 204.201C242.337 204.326 242.436 204.451 242.529 204.577C242.574 204.639 242.623 204.702 242.664 204.764C242.717 204.84 242.771 204.921 242.816 204.997C242.856 205.06 242.892 205.127 242.928 205.189C243.023 205.351 243.103 205.52 243.169 205.695C243.219 205.814 243.26 205.936 243.29 206.062C243.324 206.181 243.349 206.302 243.366 206.424Z" fill="#3B3B3B"/>
<path opacity="0.2" d="M243.366 206.424C243.362 207.207 243.353 208.303 243.317 209.658C243.312 209.846 243.303 210.039 243.299 210.236C243.254 212.137 243.187 214.485 243.093 217.138C243.089 217.299 243.084 217.456 243.075 217.617C242.95 220.856 242.753 224.627 242.413 230.599C241.782 241.631 240.682 232.116 239.577 235.985C236.508 234.097 233.144 232.12 229.547 230.089C228.898 229.722 228.243 229.354 227.583 228.984C220.389 224.971 212.354 220.766 203.966 216.601C203.635 216.436 203.3 216.27 202.969 216.109C183.754 206.612 162.781 197.374 145.79 191.21C142.511 190.02 139.379 188.946 136.436 188.002C130.235 186.02 124.876 184.634 120.751 184.034C116.456 183.408 113.49 183.632 112.291 184.924C112.246 184.012 112.2 183.138 112.152 182.303C112.134 182.026 112.117 181.753 112.099 181.484C112.126 181.411 112.162 181.34 112.197 181.27C112.202 181.259 112.205 181.248 112.21 181.238C112.219 181.215 112.23 181.193 112.242 181.171C112.255 181.143 112.27 181.117 112.287 181.091C112.301 181.059 112.319 181.029 112.34 181.001C112.38 180.939 112.425 180.871 112.474 180.809C112.511 180.762 112.549 180.717 112.591 180.675C112.604 180.653 112.621 180.634 112.64 180.616C112.658 180.599 112.676 180.576 112.698 180.554C112.708 180.54 112.72 180.528 112.734 180.518C112.769 180.477 112.808 180.44 112.85 180.406C113.01 180.259 113.18 180.125 113.36 180.004C113.423 179.963 113.49 179.923 113.553 179.878C114.003 179.609 114.478 179.381 114.971 179.198C115.141 179.136 115.311 179.078 115.494 179.015C115.561 178.997 115.624 178.975 115.691 178.952C115.789 178.921 115.888 178.89 115.991 178.867C116.501 178.715 117.051 178.585 117.646 178.465C117.825 178.429 118.013 178.393 118.201 178.362C118.353 178.335 118.509 178.308 118.666 178.281C119.995 178.071 121.502 177.914 123.167 177.812C123.323 177.803 123.48 177.794 123.636 177.785C123.82 177.776 124.003 177.767 124.191 177.758C124.348 177.749 124.509 177.744 124.67 177.74C124.826 177.731 124.987 177.727 125.153 177.722C125.605 177.709 126.07 177.695 126.544 177.686C127.895 177.664 129.318 177.673 130.812 177.704C131.506 177.718 132.212 177.74 132.937 177.771C132.982 177.771 133.031 177.776 133.076 177.776C133.707 177.794 134.346 177.825 134.995 177.856C135.451 177.879 135.912 177.901 136.373 177.928C136.807 177.955 137.245 177.982 137.688 178.013C138.033 178.031 138.377 178.058 138.726 178.08C139.021 178.102 139.317 178.125 139.612 178.143C139.965 178.169 140.319 178.196 140.677 178.223C141.169 178.263 141.661 178.304 142.162 178.344C142.658 178.389 143.164 178.433 143.67 178.478C144.175 178.523 144.685 178.572 145.195 178.621C145.249 178.626 145.298 178.63 145.347 178.635C145.812 178.684 146.278 178.729 146.747 178.778C149.351 179.042 152.031 179.35 154.787 179.704C156.433 179.914 158.1 180.139 159.788 180.379C162.352 180.742 164.955 181.135 167.577 181.556C170.203 181.981 172.844 182.43 175.5 182.902C176.171 183.023 176.842 183.144 177.518 183.269C178.341 183.421 179.164 183.576 179.987 183.734C180.506 183.833 181.025 183.931 181.544 184.034C182.161 184.155 182.783 184.276 183.401 184.397C187.467 185.202 191.511 186.061 195.457 186.96C196.106 187.107 196.755 187.26 197.399 187.407C198.687 187.707 199.964 188.011 201.228 188.32C201.577 188.405 201.922 188.49 202.266 188.575C203.13 188.79 203.984 189.004 204.83 189.219V189.223C204.879 189.232 204.928 189.246 204.977 189.259C205.595 189.416 206.207 189.572 206.816 189.733C208.252 190.109 209.664 190.488 211.052 190.87C211.974 191.129 212.887 191.384 213.786 191.644C215.132 192.037 216.452 192.431 217.736 192.825C218.054 192.923 218.371 193.022 218.685 193.115C219.624 193.411 220.546 193.704 221.449 193.997C222.165 194.229 222.863 194.466 223.552 194.704C224.241 194.941 224.916 195.178 225.579 195.415C226.008 195.567 226.429 195.723 226.845 195.876C227.453 196.099 228.044 196.323 228.625 196.551C228.804 196.618 228.979 196.69 229.153 196.757C229.48 196.882 229.797 197.012 230.11 197.142C230.321 197.222 230.527 197.307 230.732 197.397C230.934 197.477 231.139 197.562 231.336 197.647C231.538 197.728 231.734 197.813 231.931 197.902C232.097 197.969 232.258 198.041 232.414 198.112C232.732 198.251 233.05 198.39 233.358 198.533C233.51 198.604 233.663 198.672 233.815 198.743L234.164 198.904C234.213 198.931 234.262 198.953 234.311 198.976C234.692 199.155 235.058 199.334 235.416 199.513C235.752 199.683 236.078 199.853 236.392 200.018C236.763 200.215 237.116 200.407 237.456 200.604C237.523 200.64 237.59 200.68 237.658 200.716C237.886 200.846 238.105 200.98 238.324 201.11C238.754 201.374 239.161 201.633 239.541 201.892C239.917 202.152 240.266 202.407 240.592 202.662C240.592 202.666 240.592 202.666 240.597 202.666C240.753 202.792 240.906 202.917 241.049 203.038C241.281 203.239 241.496 203.431 241.693 203.628C241.759 203.689 241.822 203.753 241.881 203.821C241.907 203.842 241.931 203.866 241.952 203.892C242.046 203.995 242.14 204.098 242.23 204.201C242.337 204.326 242.436 204.451 242.529 204.577C242.574 204.639 242.623 204.702 242.664 204.764C242.717 204.84 242.771 204.921 242.816 204.997C242.856 205.06 242.892 205.127 242.928 205.189C243.023 205.351 243.103 205.52 243.169 205.695C243.218 205.814 243.259 205.937 243.29 206.062C243.324 206.181 243.349 206.302 243.366 206.424Z" fill="white"/>
</g>
<defs>
<clipPath id="clip0_122_1222">
<rect width="352" height="256" fill="white"/>
</clipPath>
</defs>
</svg>
